<?xml version="1.0" standalone="no"?>
<!DOCTYPE svg PUBLIC "-//W3C//DTD SVG 20010904//EN"
 "http://www.w3.org/TR/2001/REC-SVG-20010904/DTD/svg10.dtd">
<svg version="1.0" xmlns="http://www.w3.org/2000/svg"
 width="461.000000pt" height="461.000000pt" viewBox="0 0 461.000000 461.000000"
 preserveAspectRatio="xMidYMid meet">
<metadata>
Created by potrace 1.14, written by Peter Selinger 2001-2017
</metadata>
<g transform="translate(0.000000,461.000000) scale(0.100000,-0.100000)"
fill="#000000" stroke="none">
<path d="M2118 4550 c-548 -49 -1053 -290 -1461 -695 -329 -327 -550 -709
-635 -1095 -23 -107 -23 -352 1 -440 52 -193 186 -363 375 -473 227 -133 605
-226 1026 -253 76 -5 106 -11 106 -20 0 -7 -9 -86 -20 -176 -35 -275 -73 -406
-190 -658 -86 -184 -101 -231 -107 -332 -7 -106 9 -157 67 -217 102 -105 284
-151 685 -172 228 -13 691 -6 865 11 291 30 456 94 525 205 26 42 30 60 34
132 4 105 -15 172 -114 388 -122 268 -149 364 -185 649 -24 190 -25 186 48
186 24 0 107 7 185 16 620 68 987 226 1168 502 93 142 124 270 116 472 -11
276 -116 560 -316 862 -396 595 -1019 1000 -1680 1092 -138 20 -370 27 -493
16z"/>
</g>
</svg>
